<svg xmlns="http://www.w3.org/2000/svg" viewBox="0 0 300 570"><rect x="20" y="5" width="260" height="560" rx="42" fill="#fffdf8" stroke="#20242b" stroke-width="10"/><rect x="110" y="18" width="80" height="16" rx="8" fill="#20242b"/><text x="150" y="75" text-anchor="middle" font-family="Arial" font-weight="800" font-size="24" fill="#f06c53">ParentPlay</text><rect x="42" y="96" width="216" height="44" rx="22" fill="#fff" stroke="#eee"/><text x="55" y="123" font-family="Arial" font-size="11">What shall we do today?</text><rect x="42" y="155" width="101" height="96" rx="18" fill="#72ad5a"/><rect x="157" y="155" width="101" height="96" rx="18" fill="#f28a68"/><text x="92" y="200" text-anchor="middle" font-family="Arial" font-weight="700" font-size="12" fill="white">Find something</text><text x="92" y="218" text-anchor="middle" font-family="Arial" font-weight="700" font-size="12" fill="white">nearby</text><text x="208" y="207" text-anchor="middle" font-family="Arial" font-weight="700" font-size="13" fill="white">Surprise us</text><rect x="42" y="265" width="216" height="47" rx="16" fill="#68b8df"/><text x="150" y="294" text-anchor="middle" font-family="Arial" font-weight="700" font-size="12" fill="white">Your Little Adventurers</text><g font-family="Arial" font-size="10" text-anchor="middle"><rect x="42" y="327" width="64" height="38" rx="13" fill="#edf4d9"/><text x="74" y="350">Outdoors</text><rect x="118" y="327" width="64" height="38" rx="13" fill="#f0e7f6"/><text x="150" y="350">Indoors</text><rect x="194" y="327" width="64" height="38" rx="13" fill="#fff0bf"/><text x="226" y="350">Animals</text><rect x="42" y="377" width="64" height="38" rx="13" fill="#edf4d9"/><text x="74" y="400">Free ideas</text><rect x="118" y="377" width="64" height="38" rx="13" fill="#f0e7f6"/><text x="150" y="400">Active days</text><rect x="194" y="377" width="64" height="38" rx="13" fill="#fff0bf"/><text x="226" y="400">At home</text></g></svg>